<svg xmlns="http://www.w3.org/2000/svg" viewBox="0 0 716 488.24"><path d="M363.68 186.99c-3.31-5.74-9.53-9.55-15.94-10.79-18.63-3.62-35.32 7.58-45.84 22.57-4.56-10.25-17.63-15.71-27.66-9.93-8.76 4.9-.91 18.38 7.87 13.47 5.75-3.22 6.69 8.12 6.24 10.82-4.53 20.57-20.22 38.3-38.69 47.85-2.23 1.14-4.89 2.7-7.48 2.82-6.3.61-3.95-11.13-3-14.86 3.45-14.91 11.81-27.8 23.52-37.54 7.73-6.43-3.36-17.41-11.03-11.03-5.09 4.23-9.63 9.09-13.56 14.41-3.86-11.15-17.75-17.66-28.33-11.53-8.76 4.9-.91 18.38 7.87 13.47 5.75-3.22 6.69 8.12 6.24 10.82-4.53 20.57-20.22 38.3-38.69 47.85-2.56 1.29-8.33 4.73-10.47 1.61-2.29-3.38-.91-9.72 0-13.65 3.45-14.91 11.81-27.8 23.52-37.54 7.73-6.43-3.36-17.41-11.03-11.03-12.81 10.66-22.27 25.29-26.75 41.36-3.48 12.51-4.74 31.75 10.76 36.76 18.18 5.53 41.59-16.2 52.08-29.3 1.3 6.71 4.87 12.47 12.37 14.89 19.15 5.88 45.21-19.02 55.21-33.59.74 3.98 1.91 7.91 3.53 11.74 1.64 3.87 7.37 4.75 10.67 2.8 4-2.37 4.46-6.76 2.8-10.67-8.02-18.85 3.03-43.96 20.15-53.73 6.75-3.85 25.74-7.88 22.27 5.89-1.88 7.46-6.31 14.65-10.18 21.23-4.15 7.05-8.79 13.81-13.92 20.17-2.67 3.3-3.17 7.79 0 11.03 2.71 2.77 8.39 3.27 11.03 0 10.43-12.93 19.69-27.05 26.05-42.46 3.14-7.61 4.71-16.4.39-23.91z"/><path d="M396.89 168.09c-29.65 14.01-44.99 60.19-33.26 90.01-6.27.77-12.52 1.79-18.69 3.04-9.83 1.99-5.67 17.03 4.15 15.04 9.52-1.92 19.19-3.24 28.89-3.8 6.05-.35 11.18-8.74 5.52-13.32-5.41-4.37-7.57-10.82-8.1-18.19-1.01-18.88 5.61-38.79 19.15-52.22 5.64-5.42 18.13-13.05 25.03-5.27 4.37 4.93 1.41 14.15-.32 19.6-2.1 6.59-5.51 12.85-11.59 16.48-8.62 5.13-.78 18.62 7.87 13.47 14.55-8.66 23.31-29.21 21.49-45.87-2.19-19.89-23.51-26.7-40.14-18.97zM708.2 153.58c-85.8 8.61-170.57 27.28-251.82 56.22 2.19-12.65 4.37-25.3 6.56-37.94 1.7-9.82-13.33-14.04-15.04-4.15-2.99 17.29-5.98 34.58-8.97 51.86-.76 4.4 2.16 9.67 6.69 10.01 25.67 11.25 51.33 22.5 77 33.75 3.88 1.7 8.33 1.11 10.67-2.8 1.97-3.29 1.05-8.98-2.8-10.67-20.93-9.18-41.87-18.35-62.8-27.53 77.75-26.93 158.6-45 240.5-53.16 4.19-.42 7.8-3.28 7.8-7.8.01-3.88-3.57-8.21-7.79-7.79zM318.22 266.74c-69.65 16.4-142.12 36.22-205.83 70.86 3.82-25.32 6.29-50.86 8.73-76.36 60.72-54.91 129.22-122.73 128.29-210.43-.77-17.58-6.14-46.41-27.37-50.31-23.67-4.35-42.68 20.56-54.88 37.02-46 62.04-54.01 140.51-61.02 216.06-17.65 15.26-35.75 29.92-54.21 44.18-3.36 2.6-2.68 8.29 0 11.03 3.25 3.33 7.72 2.56 11.03 0 13.87-10.72 27.62-21.67 41.1-32.95-2.31 24.08-4.92 47.77-8.95 71.66-30.86 19.41-90.7 59.63-94.78 97.98-2.49 20.31 9.09 40.29 30.5 42.54 24.74 2.61 41.53-19.68 50.72-39.55 13.36-28.83 21.84-59.68 27.5-90.88 55.15-31.69 116.32-51.25 177.65-67.07 11.85-3.05 23.75-5.95 35.66-8.76 9.78-2.28 5.64-17.33-4.14-15.02zM148.13 107.23c10.51-29.28 29.83-65.73 54.28-85.46 5.91-4.34 14.88-8.54 20.28-4.22 6.71 5.37 9.12 16.29 10.34 24.42 1.38 9.47 1.07 19.13-.08 28.61-9.51 68.73-60.79 122.17-109.59 167.74 4.42-44.26 9.84-88.98 24.77-131.09zM70.61 434.96c-4.73 10.92-9.96 22.75-19.23 30.63-13.17 11.57-32.72 9.12-35.65-10.13-1.71-12.07 4.7-23.49 11.78-32.71 7.02-9.14 15.88-17.15 24.49-24.76 12.24-10.83 25.38-20.61 39.13-29.44-4.8 22.74-11.28 45.09-20.52 66.41z"/><path d="M646.87 251.07c-15.47 6.22-23.91-12.22-27.35-23.99-2.05-7.05-13.4-7.8-15.04 0-.97 4.59-1.75 10.07-4.74 13.87-1.82 2.31-5.24 4.46-7.72 1.99-2.67-2.65-2.89-7.97-3.01-11.45-.08-2.37-.01-4.69.19-7 1.57-4.62 2.48-9.49 2.64-14.51.21-9.64-14.26-10.15-15.65-.91-1.66-3.9-6.26-6.87-11.2-4.46-10.73 5.24-19.9 13.62-26.02 23.9-3.32 5.57-5.97 12.28-3.82 18.76 2.06 6.2 8.04 9.58 14.32 9.79 9.39.31 19.09-5.06 26.11-11.59 6.17 17.04 26.24 18.75 36.71 4.61 7.5 12.92 24.06 21.85 38.72 16.04 3.91-1.57 6.65-5.2 5.45-9.59-1.01-3.72-5.65-7.04-9.59-5.46zm-92.85-10.42c-.93.31-3.23.36-3.88.83-.03.01-.05 0-.08 0v-.01c.89-.9 1.68-3.9 2.39-5.09 4.93-8.85 13.15-14.68 21.93-19.24-.25 1.42-.47 2.88-.65 4.36-3.58 8.76-10.68 16.18-19.71 19.15zM607.51 213.65c.93.49 1.93.71 3.01.67.69-.09 1.38-.19 2.07-.28 1.32-.37 2.47-1.04 3.44-2.01.41-.53.81-1.05 1.22-1.58.99-1.61 1.13-3.47 1.06-5.31.04-1.07-.18-2.08-.67-3.01-.31-.97-.85-1.8-1.61-2.51-.71-.76-1.54-1.3-2.51-1.61-.93-.49-1.93-.71-3.01-.67-.69.09-1.38.19-2.07.28-1.32.37-2.47 1.04-3.44 2.01-.41.53-.81 1.05-1.22 1.58-.99 1.61-1.13 3.47-1.06 5.31-.04 1.07.18 2.08.67 3.01.31.97.85 1.8 1.61 2.51.71.75 1.55 1.29 2.51 1.61z"/></svg>