<?xml version="1.0" encoding="utf-8"?>
<!-- Generator: Adobe Illustrator 25.2.3, SVG Export Plug-In . SVG Version: 6.00 Build 0)  -->
<svg version="1.1" id="Layer_1" xmlns="http://www.w3.org/2000/svg" xmlns:xlink="http://www.w3.org/1999/xlink" x="0px" y="0px"
	 viewBox="0 0 338.63 56.91" style="enable-background:new 0 0 338.63 56.91;" xml:space="preserve">
<style type="text/css">
	.st0{fill:#74C098;}
</style>
<path d="M9.21,8.3v40.42h41.88c0.95,0,1.65,0.15,2.1,0.45c0.76,0.46,1.14,1.69,1.14,3.7c0,1.93-0.34,3.11-1.02,3.52
	c-0.57,0.34-1.33,0.51-2.27,0.51H4.6c-2.2,0-3.54-0.49-4.04-1.48C0.19,54.63,0,53.48,0,51.96V5c0-1.48,0.16-2.55,0.48-3.21
	C0.8,1.13,1.31,0.68,1.99,0.46S3.2,0.11,4.3,0.11h1.62c0.95,0,1.65,0.13,2.1,0.4C8.78,1,9.16,2.25,9.16,4.26"/>
<path class="st0" d="M69.23,0.11c2.24,0,3.6,0.51,4.09,1.54C73.7,2.41,73.89,3.52,73.89,5v46.96c0,1.52-0.16,2.61-0.48,3.27
	c-0.32,0.66-0.82,1.11-1.48,1.34c-0.66,0.23-1.54,0.34-2.64,0.34h-8.75c-1.74,0-2.77-0.57-3.07-1.71c-0.15-0.61-0.23-1.39-0.23-2.36
	s0.08-1.75,0.23-2.36c0.15-0.61,0.4-1.02,0.74-1.25c0.57-0.34,1.33-0.51,2.27-0.51h4.21V8.3h-4.15c-1.74,0-2.77-0.59-3.07-1.76
	c-0.15-0.57-0.23-1.34-0.23-2.3s0.08-1.75,0.23-2.36c0.15-0.61,0.4-1.02,0.74-1.25c0.57-0.34,1.33-0.51,2.27-0.51H69.23z"/>
<path d="M95.09,14.1c3.79,0,6.94,1.45,9.47,4.35c2.52,2.9,3.78,6.43,3.78,10.6v10.01c0,0.87-0.03,1.53-0.08,1.96
	c-0.06,0.44-0.22,0.92-0.48,1.45c-0.53,1.02-2.01,1.54-4.43,1.54c-2.69,0-4.25-0.7-4.66-2.1c-0.23-0.64-0.34-1.61-0.34-2.9V28.99
	c0-1.55-0.45-2.77-1.34-3.64c-0.89-0.87-2.08-1.31-3.58-1.31c-1.5,0-2.71,0.45-3.64,1.36c-0.93,0.91-1.39,2.1-1.39,3.58v10.06
	c0,0.87-0.03,1.53-0.09,1.96c-0.06,0.44-0.24,0.92-0.54,1.45C87.27,43.49,85.81,44,83.38,44c-2.39,0-3.85-0.51-4.38-1.54
	c-0.27-0.57-0.43-1.07-0.48-1.51c-0.06-0.43-0.09-1.09-0.09-1.96V18.87c0-0.83,0.03-1.47,0.09-1.9c0.06-0.44,0.24-0.92,0.54-1.45
	c0.53-0.95,1.99-1.42,4.38-1.42c2.31,0,3.73,0.44,4.26,1.31c0.38,0.64,0.57,1.42,0.57,2.33c0.15-0.26,0.49-0.64,1.02-1.14
	c0.53-0.49,1.04-0.89,1.54-1.19C92.12,14.54,93.54,14.1,95.09,14.1z"/>
<path d="M113.11,41.39c-0.72-0.46-1.08-1.17-1.08-2.16s0.72-2.48,2.16-4.49c0.42-0.64,1.09-0.97,2.02-0.97
	c0.93,0,2.19,0.46,3.78,1.39c1.59,0.93,3.03,1.39,4.32,1.39c2.31,0,3.47-0.46,3.47-1.36c0-0.72-1.27-1.25-3.81-1.59
	c-2.39-0.34-4.76-1.23-7.11-2.67c-1.1-0.68-2.01-1.75-2.73-3.21c-0.72-1.46-1.08-3.19-1.08-5.2c0-5.99,4.11-8.98,12.34-8.98
	c2.69,0,5.46,0.64,8.3,1.93c1.33,0.61,1.99,1.36,1.99,2.27c0,0.91-0.42,2.03-1.25,3.35c-0.83,1.33-1.69,1.99-2.56,1.99
	c-0.45,0-1.3-0.28-2.53-0.85c-1.23-0.57-2.57-0.85-4.01-0.85c-2.24,0-3.35,0.42-3.35,1.25c0,1.14,1.29,1.88,3.87,2.22
	c2.5,0.27,4.93,0.99,7.28,2.16c1.1,0.53,2.02,1.45,2.76,2.76c0.74,1.31,1.11,2.95,1.11,4.92s-0.37,3.65-1.11,5.03
	c-0.74,1.38-1.77,2.42-3.1,3.1c-2.43,1.18-5.47,1.76-9.12,1.76C120,44.57,116.48,43.51,113.11,41.39z"/>
<path d="M158.31,29.05l7.56,6.25c0.95,0.8,1.54,1.4,1.79,1.82c0.25,0.42,0.37,0.82,0.37,1.19c0,0.91-0.59,2.14-1.76,3.7
	c-1.29,1.59-2.43,2.39-3.41,2.39c-0.83,0-1.99-0.55-3.47-1.65l-0.57-0.4c-0.87-0.72-2.22-1.98-4.04-3.78
	c-1.82-1.8-3.2-3.08-4.15-3.84v4.38c0,0.87-0.03,1.53-0.09,1.96c-0.06,0.44-0.24,0.94-0.54,1.51c-0.49,0.99-1.95,1.48-4.38,1.48
	c-2.39,0-3.85-0.51-4.38-1.54c-0.27-0.57-0.43-1.07-0.48-1.51c-0.06-0.44-0.09-1.09-0.09-1.96V5c0-0.87,0.03-1.53,0.09-1.96
	c0.06-0.43,0.22-0.94,0.48-1.51c0.53-1.02,2.01-1.54,4.43-1.54c1.82,0,3.11,0.32,3.87,0.97c0.64,0.53,0.98,1.36,1.02,2.5
	c0.04,0.34,0.06,0.87,0.06,1.59v18.02c0.68-0.57,1.71-1.54,3.1-2.9c1.38-1.36,2.42-2.33,3.1-2.9l0.68-0.46
	c1.33-1.02,2.46-1.53,3.41-1.53c0.95,0,2.04,0.77,3.27,2.3c1.23,1.54,1.85,2.74,1.85,3.61c0,0.87-0.7,1.9-2.1,3.07L158.31,29.05z"/>
<path d="M188.89,17.28c0.23-2.12,1.72-3.18,4.49-3.18c1.48,0,2.58,0.11,3.3,0.34c0.72,0.23,1.22,0.63,1.51,1.19s0.46,1.07,0.51,1.51
	s0.08,1.09,0.08,1.96V39c0,0.87-0.03,1.53-0.08,1.96c-0.06,0.44-0.22,0.94-0.48,1.51c-0.53,0.99-1.83,1.48-3.89,1.48
	c-2.07,0-3.45-0.26-4.15-0.77c-0.7-0.51-1.11-1.26-1.22-2.25c-1.4,2.01-3.74,3.01-7.02,3.01c-3.28,0-6.32-1.5-9.12-4.49
	c-2.81-2.99-4.21-6.47-4.21-10.43c0-3.96,1.41-7.43,4.24-10.4c2.82-2.97,5.92-4.46,9.29-4.46c1.29,0,2.46,0.23,3.52,0.68
	c1.06,0.46,1.8,0.88,2.22,1.28C188.29,16.51,188.63,16.9,188.89,17.28z M178.55,29.11c0,1.25,0.49,2.38,1.48,3.38
	c0.98,1,2.18,1.51,3.58,1.51c1.4,0,2.57-0.51,3.5-1.54c0.93-1.02,1.39-2.15,1.39-3.38s-0.45-2.38-1.34-3.44
	c-0.89-1.06-2.08-1.59-3.58-1.59c-1.5,0-2.71,0.53-3.64,1.59C179.01,26.7,178.55,27.86,178.55,29.11z"/>
<path d="M212.68,8.56c-0.28,0.55-0.79,0.94-1.51,1.17c-0.72,0.23-1.68,0.34-2.87,0.34c-1.19,0-2.15-0.11-2.87-0.34
	c-0.72-0.23-1.22-0.63-1.51-1.19s-0.46-1.07-0.51-1.51c-0.06-0.43-0.08-1.09-0.08-1.96c0-0.87,0.03-1.53,0.08-1.96
	s0.22-0.92,0.48-1.45c0.53-1.02,2.01-1.54,4.43-1.54c2.39,0,3.83,0.51,4.32,1.54c0.3,0.57,0.48,1.07,0.54,1.51s0.08,1.09,0.08,1.96
	c0,0.87-0.03,1.53-0.08,1.96S212.97,8.01,212.68,8.56z M203.33,19.1c0-0.87,0.03-1.53,0.08-1.96s0.22-0.94,0.48-1.51
	c0.53-0.99,2.01-1.48,4.43-1.48c1.82,0,3.11,0.32,3.87,0.97c0.64,0.53,0.99,1.35,1.02,2.44c0.04,0.38,0.06,0.93,0.06,1.65v19.9
	c0,0.87-0.03,1.53-0.08,1.96s-0.24,0.94-0.54,1.51c-0.49,0.99-1.95,1.48-4.38,1.48c-2.39,0-3.85-0.51-4.38-1.54
	c-0.27-0.57-0.43-1.06-0.48-1.48s-0.08-1.08-0.08-1.99V19.1z"/>
<path d="M226.64,34.68c0.64,0.64,0.97,1.97,0.97,3.98v0.23c0,0.91-0.03,1.58-0.08,2.02c-0.06,0.44-0.26,0.96-0.6,1.56
	c-0.57,1.1-2,1.65-4.29,1.65c-2.29,0-3.81-0.36-4.55-1.08c-0.74-0.72-1.11-2.08-1.11-4.09v-0.23c0-0.87,0.03-1.54,0.09-1.99
	c0.06-0.45,0.24-0.97,0.54-1.53c0.57-1.14,2-1.71,4.29-1.71C224.19,33.48,225.77,33.88,226.64,34.68z"/>
<path d="M240.68,29.08c0,1.61,0.53,2.86,1.59,3.75c1.06,0.89,2.19,1.34,3.38,1.34c1.19,0,2.31-0.35,3.35-1.05
	c1.04-0.7,1.88-1.05,2.53-1.05c1.14,0,2.52,1,4.15,3.01c0.87,1.1,1.31,2.08,1.31,2.96c0,1.44-1.04,2.79-3.13,4.04
	c-2.16,1.52-4.81,2.27-7.96,2.27c-3.53,0-6.92-1.27-10.18-3.81c-1.55-1.21-2.82-2.83-3.81-4.86c-0.99-2.03-1.48-4.26-1.48-6.71
	s0.49-4.66,1.48-6.65c0.99-1.99,2.25-3.59,3.81-4.8c3.15-2.5,6.5-3.75,10.06-3.75c1.44,0,2.84,0.2,4.21,0.6
	c1.36,0.4,2.37,0.79,3.01,1.17l0.91,0.57c0.68,0.45,1.21,0.82,1.59,1.08c0.99,0.76,1.48,1.62,1.48,2.59c0,0.97-0.4,2.06-1.19,3.27
	c-1.36,2.08-2.67,3.13-3.92,3.13c-0.72,0-1.74-0.42-3.07-1.25c-0.68-0.64-1.66-0.97-2.93-0.97c-1.27,0-2.46,0.46-3.55,1.36
	C241.23,26.21,240.68,27.47,240.68,29.08z"/>
<path d="M264.62,17.85c3.18-2.96,6.82-4.43,10.92-4.43c4.09,0,7.71,1.47,10.86,4.41c3.15,2.94,4.72,6.68,4.72,11.23
	c0,3.15-0.82,5.94-2.44,8.39c-1.63,2.44-3.61,4.25-5.94,5.4c-2.33,1.16-4.75,1.73-7.25,1.73c-2.5,0-4.93-0.62-7.28-1.85
	c-2.35-1.23-4.33-3.05-5.94-5.46c-1.61-2.41-2.42-5.13-2.42-8.16C259.84,24.56,261.43,20.81,264.62,17.85z M271.72,33.17
	c1.21,0.93,2.44,1.39,3.7,1.39s2.5-0.47,3.75-1.42s1.88-2.35,1.88-4.21c0-1.86-0.59-3.24-1.76-4.15c-1.18-0.91-2.45-1.36-3.81-1.36
	s-2.63,0.47-3.81,1.42c-1.17,0.95-1.76,2.34-1.76,4.18C269.9,30.86,270.51,32.24,271.72,33.17z"/>
<path d="M304.58,18.08c1.78-2.69,3.92-4.04,6.42-4.04c3.87,0,6.75,1.65,8.64,4.95c0.42-0.57,0.92-1.17,1.51-1.79
	c0.59-0.63,1.53-1.31,2.81-2.05s2.62-1.11,3.98-1.11c3.03,0,5.57,1.17,7.62,3.5s3.07,6.19,3.07,11.57v9.95
	c0,0.87-0.03,1.53-0.09,1.96c-0.06,0.44-0.24,0.94-0.54,1.51c-0.49,1.02-1.95,1.54-4.38,1.54c-2.39,0-3.85-0.53-4.38-1.59
	c-0.27-0.57-0.43-1.07-0.48-1.51c-0.06-0.43-0.09-1.09-0.09-1.96v-9.95c0-3.3-1.17-4.95-3.52-4.95c-1.33,0-2.23,0.44-2.7,1.31
	c-0.47,0.87-0.71,2.1-0.71,3.7v9.95c0,0.91-0.03,1.57-0.08,1.99s-0.24,0.91-0.54,1.48c-0.53,1.02-2.01,1.54-4.43,1.54
	c-2.39,0-3.85-0.53-4.38-1.59c-0.27-0.57-0.43-1.07-0.48-1.51c-0.06-0.43-0.09-1.09-0.09-1.96v-9.95c0-3.3-1.17-4.95-3.52-4.95
	c-2.27,0-3.41,1.65-3.41,4.95v10.06c0,0.87-0.03,1.53-0.08,1.96s-0.24,0.94-0.54,1.51c-0.57,0.99-2.05,1.48-4.43,1.48
	s-3.85-0.51-4.38-1.54c-0.27-0.57-0.43-1.06-0.48-1.48s-0.08-1.08-0.08-1.99V19.04c0-0.87,0.03-1.53,0.08-1.96
	c0.06-0.43,0.24-0.92,0.54-1.45c0.57-1.02,1.91-1.54,4.04-1.54c2.12,0,3.5,0.34,4.15,1.02C304.26,15.8,304.58,16.79,304.58,18.08z"
	/>
<path d="M15.97,21.47c2.16-2,4.62-3.01,7.4-3.01c2.77,0,5.23,1,7.36,2.99c2.13,1.99,3.2,4.53,3.2,7.61c0,2.13-0.55,4.03-1.66,5.68
	c-1.1,1.66-2.45,2.88-4.03,3.66c-1.58,0.78-3.22,1.18-4.91,1.18c-1.7,0-3.34-0.42-4.93-1.25c-1.59-0.83-2.93-2.07-4.03-3.7
	c-1.09-1.63-1.64-3.47-1.64-5.53C12.73,26.02,13.81,23.47,15.97,21.47z M20.78,31.85c0.82,0.63,1.66,0.94,2.5,0.94
	c0.85,0,1.7-0.32,2.54-0.96c0.85-0.64,1.27-1.59,1.27-2.85c0-1.26-0.4-2.2-1.19-2.81c-0.8-0.62-1.66-0.92-2.58-0.92
	s-1.79,0.32-2.58,0.96c-0.8,0.64-1.19,1.59-1.19,2.83C19.55,30.29,19.96,31.22,20.78,31.85z"/>
<path d="M41.34,21.47c2.16-2,4.62-3.01,7.4-3.01c2.77,0,5.23,1,7.36,2.99c2.13,1.99,3.2,4.53,3.2,7.61c0,2.13-0.55,4.03-1.66,5.68
	c-1.1,1.66-2.45,2.88-4.03,3.66c-1.58,0.78-3.22,1.18-4.91,1.18c-1.7,0-3.34-0.42-4.93-1.25c-1.59-0.83-2.93-2.07-4.03-3.7
	C38.65,33,38.1,31.15,38.1,29.1C38.1,26.02,39.18,23.47,41.34,21.47z M46.16,31.85c0.82,0.63,1.66,0.94,2.5,0.94s1.7-0.32,2.54-0.96
	c0.85-0.64,1.27-1.59,1.27-2.85c0-1.26-0.4-2.2-1.19-2.81c-0.8-0.62-1.66-0.92-2.58-0.92s-1.79,0.32-2.58,0.96
	c-0.8,0.64-1.19,1.59-1.19,2.83C44.92,30.29,45.34,31.22,46.16,31.85z"/>
</svg>
