<svg xmlns="http://www.w3.org/2000/svg" viewBox="0 0 338.6 56.9"><path d="M9.2 8.3v40.4h41.9c1 0 1.7.2 2.1.5.8.5 1.1 1.7 1.1 3.7 0 1.9-.3 3.1-1 3.5-.6.3-1.3.5-2.3.5H4.6c-2.2 0-3.5-.5-4-1.5-.4-.8-.6-1.9-.6-3.4V5c0-1.5.2-2.5.5-3.2S1.3.7 2 .5 3.2.2 4.3.2h1.6c.9 0 1.7.1 2.1.4.8.4 1.2 1.7 1.2 3.7"/><path d="M69.2.1c2.2 0 3.6.5 4.1 1.5.4.8.6 1.9.6 3.3v47c0 1.5-.2 2.6-.5 3.3s-.8 1.1-1.5 1.3-1.5.3-2.6.3h-8.8c-1.7 0-2.8-.6-3.1-1.7-.2-.6-.2-1.4-.2-2.4s.1-1.8.2-2.4c.2-.6.4-1 .7-1.3.6-.3 1.3-.5 2.3-.5h4.2V8.3h-4.2c-1.7 0-2.8-.6-3.1-1.8-.2-.6-.2-1.3-.2-2.3s.1-1.8.2-2.4c.2-.6.4-1 .7-1.3.6-.3 1.3-.5 2.3-.5l8.9.1z" fill="#51e8a7"/><path d="M95.1 14.1c3.8 0 6.9 1.4 9.5 4.4 2.5 2.9 3.8 6.4 3.8 10.6v10c0 .9 0 1.5-.1 2-.1.4-.2.9-.5 1.5-.5 1-2 1.5-4.4 1.5-2.7 0-4.3-.7-4.7-2.1-.2-.6-.3-1.6-.3-2.9V29c0-1.5-.4-2.8-1.3-3.6-.9-.9-2.1-1.3-3.6-1.3s-2.7.5-3.6 1.4-1.4 2.1-1.4 3.6V39c0 .9 0 1.5-.1 2-.1.4-.2.9-.5 1.5-.5 1-2 1.5-4.4 1.5-2.4 0-3.8-.5-4.4-1.5-.3-.6-.4-1.1-.5-1.5-.1-.4-.1-1.1-.1-2V18.9c0-.8 0-1.5.1-1.9.1-.4.2-.9.5-1.4.5-.9 2-1.4 4.4-1.4 2.3 0 3.7.4 4.3 1.3.4.6.6 1.4.6 2.3.2-.3.5-.6 1-1.1.5-.5 1-.9 1.5-1.2 1.2-1 2.6-1.4 4.2-1.4zM113.1 41.4c-.7-.5-1.1-1.2-1.1-2.2s.7-2.5 2.2-4.5c.4-.6 1.1-1 2-1s2.2.5 3.8 1.4 3 1.4 4.3 1.4c2.3 0 3.5-.5 3.5-1.4 0-.7-1.3-1.3-3.8-1.6-2.4-.3-4.8-1.2-7.1-2.7-1.1-.7-2-1.8-2.7-3.2-.7-1.5-1.1-3.2-1.1-5.2 0-6 4.1-9 12.3-9 2.7 0 5.5.6 8.3 1.9 1.3.6 2 1.4 2 2.3s-.4 2-1.3 3.4c-.8 1.3-1.7 2-2.6 2-.4 0-1.3-.3-2.5-.9s-2.6-.9-4-.9c-2.2 0-3.3.4-3.3 1.3 0 1.1 1.3 1.9 3.9 2.2 2.5.3 4.9 1 7.3 2.2 1.1.5 2 1.5 2.8 2.8.7 1.3 1.1 3 1.1 4.9s-.4 3.7-1.1 5c-.7 1.4-1.8 2.4-3.1 3.1-2.4 1.2-5.5 1.8-9.1 1.8-3.8.1-7.3-1-10.7-3.1zM158.3 29l7.6 6.3c.9.8 1.5 1.4 1.8 1.8s.4.8.4 1.2c0 .9-.6 2.1-1.8 3.7-1.3 1.6-2.4 2.4-3.4 2.4-.8 0-2-.5-3.5-1.7l-.6-.4c-.9-.7-2.2-2-4-3.8-1.8-1.8-3.2-3.1-4.1-3.8v4.4c0 .9 0 1.5-.1 2-.1.4-.2.9-.5 1.5-.5 1-1.9 1.5-4.4 1.5-2.4 0-3.9-.5-4.4-1.5-.3-.6-.4-1.1-.5-1.5-.1-.4-.1-1.1-.1-2V5c0-.9 0-1.5.1-2s.2-.9.5-1.5c.5-1 2-1.5 4.4-1.5 1.8 0 3.1.3 3.9 1 .6.5 1 1.4 1 2.5 0 .3.1.9.1 1.6v18c.7-.6 1.7-1.5 3.1-2.9 1.4-1.4 2.4-2.3 3.1-2.9l.7-.5c1.3-1 2.5-1.5 3.4-1.5s2 .8 3.3 2.3c1.2 1.5 1.9 2.7 1.9 3.6s-.7 1.9-2.1 3.1l-5.8 4.7zM188.9 17.3c.2-2.1 1.7-3.2 4.5-3.2 1.5 0 2.6.1 3.3.3.7.2 1.2.6 1.5 1.2.3.6.5 1.1.5 1.5s.1 1.1.1 2V39c0 .9 0 1.5-.1 2-.1.4-.2.9-.5 1.5-.5 1-1.8 1.5-3.9 1.5-2.1 0-3.4-.3-4.1-.8-.7-.5-1.1-1.3-1.2-2.3-1.4 2-3.7 3-7 3s-6.3-1.5-9.1-4.5-4.2-6.5-4.2-10.4 1.4-7.4 4.2-10.4c2.8-3 5.9-4.5 9.3-4.5 1.3 0 2.5.2 3.5.7 1.1.5 1.8.9 2.2 1.3.4.4.7.8 1 1.2zm-10.3 11.8c0 1.3.5 2.4 1.5 3.4s2.2 1.5 3.6 1.5 2.6-.5 3.5-1.5c.9-1 1.4-2.1 1.4-3.4s-.4-2.4-1.3-3.4-2.1-1.6-3.6-1.6-2.7.5-3.6 1.6c-1.1 1-1.5 2.2-1.5 3.4zM212.7 8.6c-.3.6-.8.9-1.5 1.2-.7.2-1.7.3-2.9.3s-2.1-.1-2.9-.3c-.7-.2-1.2-.6-1.5-1.2s-.5-1.1-.5-1.5c-.1-.4-.1-1.1-.1-2s0-1.5.1-2 .2-.9.5-1.5c.5-1 2-1.5 4.4-1.5 2.4 0 3.8.5 4.3 1.5.3.6.5 1.1.5 1.5s.1 1.1.1 2 0 1.5-.1 2-.1.9-.4 1.5zm-9.4 10.5c0-.9 0-1.5.1-2s.2-.9.5-1.5c.5-1 2-1.5 4.4-1.5 1.8 0 3.1.3 3.9 1 .6.5 1 1.3 1 2.4 0 .4.1.9.1 1.6V39c0 .9 0 1.5-.1 2s-.2.9-.5 1.5c-.5 1-1.9 1.5-4.4 1.5-2.4 0-3.9-.5-4.4-1.5-.3-.6-.4-1.1-.5-1.5s-.1-1.1-.1-2V19.1zM226.6 34.7c.6.6 1 2 1 4v.2c0 .9 0 1.6-.1 2-.1.4-.3 1-.6 1.6-.6 1.1-2 1.7-4.3 1.7s-3.8-.4-4.6-1.1-1-2.1-1-4.1v-.2c0-.9 0-1.5.1-2s.2-1 .5-1.5c.6-1.1 2-1.7 4.3-1.7 2.3-.1 3.9.3 4.7 1.1zM240.7 29.1c0 1.6.5 2.9 1.6 3.8 1.1.9 2.2 1.3 3.4 1.3s2.3-.3 3.4-1c1-.7 1.9-1 2.5-1 1.1 0 2.5 1 4.1 3 .9 1.1 1.3 2.1 1.3 3 0 1.4-1 2.8-3.1 4-2.2 1.5-4.8 2.3-8 2.3-3.5 0-6.9-1.3-10.2-3.8-1.6-1.2-2.8-2.8-3.8-4.9-1-2-1.5-4.3-1.5-6.7s.5-4.7 1.5-6.6c1-2 2.3-3.6 3.8-4.8 3.1-2.5 6.5-3.8 10.1-3.8 1.4 0 2.8.2 4.2.6 1.4.4 2.4.8 3 1.2l.9.6c.7.5 1.2.8 1.6 1.1 1 .8 1.5 1.6 1.5 2.6s-.4 2.1-1.2 3.3c-1.4 2.1-2.7 3.1-3.9 3.1-.7 0-1.7-.4-3.1-1.3-.7-.6-1.7-1-2.9-1-1.3 0-2.5.5-3.6 1.4-1.1.7-1.6 2-1.6 3.6zM264.6 17.9c3.2-3 6.8-4.4 10.9-4.4 4.1 0 7.7 1.5 10.9 4.4s4.7 6.7 4.7 11.2c0 3.1-.8 5.9-2.4 8.4-1.6 2.4-3.6 4.3-5.9 5.4-2.3 1.2-4.8 1.7-7.3 1.7s-4.9-.6-7.3-1.8-4.3-3-5.9-5.5c-1.6-2.4-2.4-5.1-2.4-8.2-.1-4.5 1.5-8.3 4.7-11.2zm7.1 15.3c1.2.9 2.4 1.4 3.7 1.4s2.5-.5 3.8-1.4 1.9-2.4 1.9-4.2c0-1.9-.6-3.2-1.8-4.1-1.2-.9-2.5-1.4-3.8-1.4s-2.6.5-3.8 1.4c-1.2 1-1.8 2.3-1.8 4.2 0 1.8.6 3.1 1.8 4.1zM304.6 18.1c1.8-2.7 3.9-4 6.4-4 3.9 0 6.8 1.6 8.6 4.9.4-.6.9-1.2 1.5-1.8.6-.6 1.5-1.3 2.8-2.1s2.6-1.1 4-1.1c3 0 5.6 1.2 7.6 3.5s3.1 6.2 3.1 11.6v10c0 .9 0 1.5-.1 2-.1.4-.2.9-.5 1.5-.5 1-2 1.5-4.4 1.5-2.4 0-3.9-.5-4.4-1.6-.3-.6-.4-1.1-.5-1.5-.1-.4-.1-1.1-.1-2V29c0-3.3-1.2-5-3.5-5-1.3 0-2.2.4-2.7 1.3s-.7 2.1-.7 3.7v9.9c0 .9 0 1.6-.1 2s-.2.9-.5 1.5c-.5 1-2 1.5-4.4 1.5-2.4 0-3.9-.5-4.4-1.6-.3-.6-.4-1.1-.5-1.5-.1-.4-.1-1.1-.1-2v-10c0-3.3-1.2-5-3.5-5s-3.4 1.6-3.4 5v10.1c0 .9 0 1.5-.1 2s-.2.9-.5 1.5c-.6 1-2 1.5-4.4 1.5s-3.9-.5-4.4-1.5c-.3-.6-.4-1.1-.5-1.5s-.1-1.1-.1-2V19c0-.9 0-1.5.1-2 .1-.4.2-.9.5-1.4.6-1 1.9-1.5 4-1.5s3.5.3 4.1 1c.8.7 1.1 1.7 1.1 3zM16 21.5c2.2-2 4.6-3 7.4-3 2.8 0 5.2 1 7.4 3S34 26 34 29.1c0 2.1-.5 4-1.7 5.7-1.1 1.7-2.5 2.9-4 3.7s-3.2 1.2-4.9 1.2c-1.7 0-3.3-.4-4.9-1.3s-2.9-2.1-4-3.7-1.6-3.5-1.6-5.5c-.2-3.2.9-5.7 3.1-7.7zM41.3 21.5c2.2-2 4.6-3 7.4-3 2.8 0 5.2 1 7.4 3s3.2 4.5 3.2 7.6c0 2.1-.5 4-1.7 5.7-1.1 1.7-2.5 2.9-4 3.7-1.6.8-3.2 1.2-4.9 1.2-1.7 0-3.3-.4-4.9-1.3s-2.9-2.1-4-3.7-1.6-3.5-1.6-5.5c-.1-3.2 1-5.7 3.1-7.7z"/></svg>