<?xml version="1.0" encoding="utf-8"?>
<!-- Generator: Adobe Illustrator 25.2.3, SVG Export Plug-In . SVG Version: 6.00 Build 0)  -->
<svg version="1.1" id="Layer_1" xmlns="http://www.w3.org/2000/svg" xmlns:xlink="http://www.w3.org/1999/xlink" x="0px" y="0px"
	 viewBox="0 0 338.6 56.9" style="enable-background:new 0 0 338.6 56.9;" xml:space="preserve">
<style type="text/css">
	.st0{fill:#51E8A7;}
</style>
<path d="M9.2,8.3v40.4h41.9c1,0,1.7,0.2,2.1,0.5c0.8,0.5,1.1,1.7,1.1,3.7c0,1.9-0.3,3.1-1,3.5c-0.6,0.3-1.3,0.5-2.3,0.5H4.6
	c-2.2,0-3.5-0.5-4-1.5C0.2,54.6,0,53.5,0,52V5c0-1.5,0.2-2.5,0.5-3.2S1.3,0.7,2,0.5s1.2-0.3,2.3-0.3h1.6c0.9,0,1.7,0.1,2.1,0.4
	C8.8,1,9.2,2.3,9.2,4.3"/>
<path class="st0" d="M69.2,0.1c2.2,0,3.6,0.5,4.1,1.5c0.4,0.8,0.6,1.9,0.6,3.3v47c0,1.5-0.2,2.6-0.5,3.3s-0.8,1.1-1.5,1.3
	s-1.5,0.3-2.6,0.3h-8.8c-1.7,0-2.8-0.6-3.1-1.7c-0.2-0.6-0.2-1.4-0.2-2.4s0.1-1.8,0.2-2.4c0.2-0.6,0.4-1,0.7-1.3
	c0.6-0.3,1.3-0.5,2.3-0.5h4.2V8.3h-4.2c-1.7,0-2.8-0.6-3.1-1.8c-0.2-0.6-0.2-1.3-0.2-2.3s0.1-1.8,0.2-2.4c0.2-0.6,0.4-1,0.7-1.3
	c0.6-0.3,1.3-0.5,2.3-0.5L69.2,0.1L69.2,0.1z"/>
<path d="M95.1,14.1c3.8,0,6.9,1.4,9.5,4.4c2.5,2.9,3.8,6.4,3.8,10.6v10c0,0.9,0,1.5-0.1,2c-0.1,0.4-0.2,0.9-0.5,1.5
	c-0.5,1-2,1.5-4.4,1.5c-2.7,0-4.3-0.7-4.7-2.1c-0.2-0.6-0.3-1.6-0.3-2.9V29c0-1.5-0.4-2.8-1.3-3.6c-0.9-0.9-2.1-1.3-3.6-1.3
	s-2.7,0.5-3.6,1.4s-1.4,2.1-1.4,3.6V39c0,0.9,0,1.5-0.1,2c-0.1,0.4-0.2,0.9-0.5,1.5c-0.5,1-2,1.5-4.4,1.5c-2.4,0-3.8-0.5-4.4-1.5
	c-0.3-0.6-0.4-1.1-0.5-1.5c-0.1-0.4-0.1-1.1-0.1-2V18.9c0-0.8,0-1.5,0.1-1.9c0.1-0.4,0.2-0.9,0.5-1.4c0.5-0.9,2-1.4,4.4-1.4
	c2.3,0,3.7,0.4,4.3,1.3c0.4,0.6,0.6,1.4,0.6,2.3c0.2-0.3,0.5-0.6,1-1.1c0.5-0.5,1-0.9,1.5-1.2C92.1,14.5,93.5,14.1,95.1,14.1z"/>
<path d="M113.1,41.4c-0.7-0.5-1.1-1.2-1.1-2.2s0.7-2.5,2.2-4.5c0.4-0.6,1.1-1,2-1s2.2,0.5,3.8,1.4s3,1.4,4.3,1.4
	c2.3,0,3.5-0.5,3.5-1.4c0-0.7-1.3-1.3-3.8-1.6c-2.4-0.3-4.8-1.2-7.1-2.7c-1.1-0.7-2-1.8-2.7-3.2c-0.7-1.5-1.1-3.2-1.1-5.2
	c0-6,4.1-9,12.3-9c2.7,0,5.5,0.6,8.3,1.9c1.3,0.6,2,1.4,2,2.3s-0.4,2-1.3,3.4c-0.8,1.3-1.7,2-2.6,2c-0.4,0-1.3-0.3-2.5-0.9
	s-2.6-0.9-4-0.9c-2.2,0-3.3,0.4-3.3,1.3c0,1.1,1.3,1.9,3.9,2.2c2.5,0.3,4.9,1,7.3,2.2c1.1,0.5,2,1.5,2.8,2.8c0.7,1.3,1.1,3,1.1,4.9
	s-0.4,3.7-1.1,5c-0.7,1.4-1.8,2.4-3.1,3.1c-2.4,1.2-5.5,1.8-9.1,1.8C120,44.6,116.5,43.5,113.1,41.4z"/>
<path d="M158.3,29l7.6,6.3c0.9,0.8,1.5,1.4,1.8,1.8s0.4,0.8,0.4,1.2c0,0.9-0.6,2.1-1.8,3.7c-1.3,1.6-2.4,2.4-3.4,2.4
	c-0.8,0-2-0.5-3.5-1.7l-0.6-0.4c-0.9-0.7-2.2-2-4-3.8c-1.8-1.8-3.2-3.1-4.1-3.8v4.4c0,0.9,0,1.5-0.1,2c-0.1,0.4-0.2,0.9-0.5,1.5
	c-0.5,1-1.9,1.5-4.4,1.5c-2.4,0-3.9-0.5-4.4-1.5c-0.3-0.6-0.4-1.1-0.5-1.5c-0.1-0.4-0.1-1.1-0.1-2V5c0-0.9,0-1.5,0.1-2
	s0.2-0.9,0.5-1.5c0.5-1,2-1.5,4.4-1.5c1.8,0,3.1,0.3,3.9,1c0.6,0.5,1,1.4,1,2.5c0,0.3,0.1,0.9,0.1,1.6v18c0.7-0.6,1.7-1.5,3.1-2.9
	c1.4-1.4,2.4-2.3,3.1-2.9l0.7-0.5c1.3-1,2.5-1.5,3.4-1.5s2,0.8,3.3,2.3c1.2,1.5,1.9,2.7,1.9,3.6s-0.7,1.9-2.1,3.1L158.3,29z"/>
<path d="M188.9,17.3c0.2-2.1,1.7-3.2,4.5-3.2c1.5,0,2.6,0.1,3.3,0.3c0.7,0.2,1.2,0.6,1.5,1.2c0.3,0.6,0.5,1.1,0.5,1.5s0.1,1.1,0.1,2
	V39c0,0.9,0,1.5-0.1,2c-0.1,0.4-0.2,0.9-0.5,1.5c-0.5,1-1.8,1.5-3.9,1.5c-2.1,0-3.4-0.3-4.1-0.8c-0.7-0.5-1.1-1.3-1.2-2.3
	c-1.4,2-3.7,3-7,3s-6.3-1.5-9.1-4.5c-2.8-3-4.2-6.5-4.2-10.4s1.4-7.4,4.2-10.4c2.8-3,5.9-4.5,9.3-4.5c1.3,0,2.5,0.2,3.5,0.7
	c1.1,0.5,1.8,0.9,2.2,1.3C188.3,16.5,188.6,16.9,188.9,17.3z M178.6,29.1c0,1.3,0.5,2.4,1.5,3.4c1,1,2.2,1.5,3.6,1.5
	c1.4,0,2.6-0.5,3.5-1.5c0.9-1,1.4-2.1,1.4-3.4s-0.4-2.4-1.3-3.4s-2.1-1.6-3.6-1.6s-2.7,0.5-3.6,1.6C179,26.7,178.6,27.9,178.6,29.1z
	"/>
<path d="M212.7,8.6c-0.3,0.6-0.8,0.9-1.5,1.2c-0.7,0.2-1.7,0.3-2.9,0.3s-2.1-0.1-2.9-0.3c-0.7-0.2-1.2-0.6-1.5-1.2s-0.5-1.1-0.5-1.5
	c-0.1-0.4-0.1-1.1-0.1-2s0-1.5,0.1-2s0.2-0.9,0.5-1.5c0.5-1,2-1.5,4.4-1.5c2.4,0,3.8,0.5,4.3,1.5c0.3,0.6,0.5,1.1,0.5,1.5
	s0.1,1.1,0.1,2s0,1.5-0.1,2S213,8,212.7,8.6z M203.3,19.1c0-0.9,0-1.5,0.1-2s0.2-0.9,0.5-1.5c0.5-1,2-1.5,4.4-1.5
	c1.8,0,3.1,0.3,3.9,1c0.6,0.5,1,1.3,1,2.4c0,0.4,0.1,0.9,0.1,1.6v19.9c0,0.9,0,1.5-0.1,2s-0.2,0.9-0.5,1.5c-0.5,1-1.9,1.5-4.4,1.5
	c-2.4,0-3.9-0.5-4.4-1.5c-0.3-0.6-0.4-1.1-0.5-1.5s-0.1-1.1-0.1-2L203.3,19.1L203.3,19.1z"/>
<path d="M226.6,34.7c0.6,0.6,1,2,1,4v0.2c0,0.9,0,1.6-0.1,2c-0.1,0.4-0.3,1-0.6,1.6c-0.6,1.1-2,1.7-4.3,1.7s-3.8-0.4-4.6-1.1
	S217,41,217,39v-0.2c0-0.9,0-1.5,0.1-2s0.2-1,0.5-1.5c0.6-1.1,2-1.7,4.3-1.7C224.2,33.5,225.8,33.9,226.6,34.7z"/>
<path d="M240.7,29.1c0,1.6,0.5,2.9,1.6,3.8c1.1,0.9,2.2,1.3,3.4,1.3s2.3-0.3,3.4-1c1-0.7,1.9-1,2.5-1c1.1,0,2.5,1,4.1,3
	c0.9,1.1,1.3,2.1,1.3,3c0,1.4-1,2.8-3.1,4c-2.2,1.5-4.8,2.3-8,2.3c-3.5,0-6.9-1.3-10.2-3.8c-1.6-1.2-2.8-2.8-3.8-4.9
	c-1-2-1.5-4.3-1.5-6.7s0.5-4.7,1.5-6.6c1-2,2.3-3.6,3.8-4.8c3.1-2.5,6.5-3.8,10.1-3.8c1.4,0,2.8,0.2,4.2,0.6c1.4,0.4,2.4,0.8,3,1.2
	l0.9,0.6c0.7,0.5,1.2,0.8,1.6,1.1c1,0.8,1.5,1.6,1.5,2.6s-0.4,2.1-1.2,3.3c-1.4,2.1-2.7,3.1-3.9,3.1c-0.7,0-1.7-0.4-3.1-1.3
	c-0.7-0.6-1.7-1-2.9-1c-1.3,0-2.5,0.5-3.6,1.4C241.2,26.2,240.7,27.5,240.7,29.1z"/>
<path d="M264.6,17.9c3.2-3,6.8-4.4,10.9-4.4c4.1,0,7.7,1.5,10.9,4.4s4.7,6.7,4.7,11.2c0,3.1-0.8,5.9-2.4,8.4
	c-1.6,2.4-3.6,4.3-5.9,5.4c-2.3,1.2-4.8,1.7-7.3,1.7s-4.9-0.6-7.3-1.8s-4.3-3-5.9-5.5c-1.6-2.4-2.4-5.1-2.4-8.2
	C259.8,24.6,261.4,20.8,264.6,17.9z M271.7,33.2c1.2,0.9,2.4,1.4,3.7,1.4s2.5-0.5,3.8-1.4s1.9-2.4,1.9-4.2c0-1.9-0.6-3.2-1.8-4.1
	c-1.2-0.9-2.5-1.4-3.8-1.4s-2.6,0.5-3.8,1.4c-1.2,1-1.8,2.3-1.8,4.2C269.9,30.9,270.5,32.2,271.7,33.2z"/>
<path d="M304.6,18.1c1.8-2.7,3.9-4,6.4-4c3.9,0,6.8,1.6,8.6,4.9c0.4-0.6,0.9-1.2,1.5-1.8c0.6-0.6,1.5-1.3,2.8-2.1s2.6-1.1,4-1.1
	c3,0,5.6,1.2,7.6,3.5s3.1,6.2,3.1,11.6v10c0,0.9,0,1.5-0.1,2c-0.1,0.4-0.2,0.9-0.5,1.5c-0.5,1-2,1.5-4.4,1.5c-2.4,0-3.9-0.5-4.4-1.6
	c-0.3-0.6-0.4-1.1-0.5-1.5c-0.1-0.4-0.1-1.1-0.1-2v-10c0-3.3-1.2-5-3.5-5c-1.3,0-2.2,0.4-2.7,1.3c-0.5,0.9-0.7,2.1-0.7,3.7v9.9
	c0,0.9,0,1.6-0.1,2s-0.2,0.9-0.5,1.5c-0.5,1-2,1.5-4.4,1.5c-2.4,0-3.9-0.5-4.4-1.6c-0.3-0.6-0.4-1.1-0.5-1.5c-0.1-0.4-0.1-1.1-0.1-2
	v-10c0-3.3-1.2-5-3.5-5c-2.3,0-3.4,1.6-3.4,5v10.1c0,0.9,0,1.5-0.1,2s-0.2,0.9-0.5,1.5c-0.6,1-2,1.5-4.4,1.5s-3.9-0.5-4.4-1.5
	c-0.3-0.6-0.4-1.1-0.5-1.5s-0.1-1.1-0.1-2V19c0-0.9,0-1.5,0.1-2c0.1-0.4,0.2-0.9,0.5-1.4c0.6-1,1.9-1.5,4-1.5c2.1,0,3.5,0.3,4.1,1
	C304.3,15.8,304.6,16.8,304.6,18.1z"/>
<path d="M16,21.5c2.2-2,4.6-3,7.4-3c2.8,0,5.2,1,7.4,3s3.2,4.5,3.2,7.6c0,2.1-0.5,4-1.7,5.7c-1.1,1.7-2.5,2.9-4,3.7
	s-3.2,1.2-4.9,1.2c-1.7,0-3.3-0.4-4.9-1.3s-2.9-2.1-4-3.7c-1.1-1.6-1.6-3.5-1.6-5.5C12.7,26,13.8,23.5,16,21.5z"/>
<path d="M41.3,21.5c2.2-2,4.6-3,7.4-3c2.8,0,5.2,1,7.4,3s3.2,4.5,3.2,7.6c0,2.1-0.5,4-1.7,5.7c-1.1,1.7-2.5,2.9-4,3.7
	c-1.6,0.8-3.2,1.2-4.9,1.2c-1.7,0-3.3-0.4-4.9-1.3s-2.9-2.1-4-3.7c-1.1-1.6-1.6-3.5-1.6-5.5C38.1,26,39.2,23.5,41.3,21.5z"/>
</svg>
