<?xml version="1.0" standalone="no"?>
<!DOCTYPE svg PUBLIC "-//W3C//DTD SVG 20010904//EN"
 "http://www.w3.org/TR/2001/REC-SVG-20010904/DTD/svg10.dtd">
<svg version="1.0" xmlns="http://www.w3.org/2000/svg"
 width="700.000000pt" height="700.000000pt" viewBox="0 0 700.000000 700.000000"
 preserveAspectRatio="xMidYMid meet">
<metadata>
Created by potrace 1.14, written by Peter Selinger 2001-2017
</metadata>
<g transform="translate(0.000000,700.000000) scale(0.100000,-0.100000)"
fill="#000000" stroke="none">
<path d="M785 6980 c-49 -11 -110 -27 -135 -36 -283 -104 -506 -333 -600 -614
-51 -155 -49 -24 -49 -2830 0 -2293 2 -2625 15 -2695 72 -379 345 -672 724
-777 l85 -23 2645 -2 c2835 -1 2707 -4 2860 48 144 48 261 120 371 229 101 99
164 196 230 355 9 22 34 111 46 165 12 54 14 5282 2 5365 -6 39 -23 109 -39
157 -108 322 -335 540 -675 645 l-90 28 -2650 2 c-2566 2 -2653 1 -2740 -17z"/>
</g>
</svg>
