<?xml version="1.0" encoding="utf-8"?>
<!-- Generator: Adobe Illustrator 25.2.3, SVG Export Plug-In . SVG Version: 6.00 Build 0)  -->
<svg version="1.1" id="Layer_1" xmlns="http://www.w3.org/2000/svg" xmlns:xlink="http://www.w3.org/1999/xlink" x="0px" y="0px"
	 viewBox="0 0 160 160" style="enable-background:new 0 0 160 160;" xml:space="preserve">
<style type="text/css">
	.st0{fill:#414142;}
	.st1{fill:#51E8A7;}
</style>
<circle class="st0" cx="80" cy="80" r="80"/>
<circle class="st1" cx="80" cy="80" r="75.47"/>
<path class="st0" d="M120.36,81.03c-18.23,4.29-37.19,9.48-53.86,18.54c1-6.63,1.65-13.31,2.28-19.98
	c15.89-14.37,33.81-32.12,33.57-55.07c-0.2-4.6-1.61-12.14-7.16-13.17c-6.19-1.14-11.17,5.38-14.36,9.69
	C68.8,37.29,66.7,57.82,64.87,77.59c-4.62,3.99-9.36,7.83-14.19,11.56c-0.88,0.68-0.7,2.17,0,2.89c0.85,0.87,2.02,0.67,2.89,0
	c3.63-2.81,7.23-5.67,10.76-8.62c-0.6,6.3-1.29,12.5-2.34,18.75c-8.08,5.08-23.73,15.6-24.8,25.64c-0.65,5.31,2.38,10.54,7.98,11.13
	c6.47,0.68,10.87-5.15,13.27-10.35c3.5-7.54,5.72-15.62,7.2-23.78c14.43-8.29,30.44-13.41,46.49-17.55c3.1-0.8,6.21-1.56,9.33-2.29
	C124.01,84.37,122.92,80.43,120.36,81.03z M75.85,39.29c2.75-7.66,7.81-17.2,14.2-22.36c1.55-1.14,3.89-2.23,5.31-1.1
	c1.76,1.41,2.39,4.26,2.71,6.39c0.36,2.48,0.28,5.01-0.02,7.49C95.56,47.69,82.14,61.67,69.37,73.6
	C70.53,62.02,71.95,50.31,75.85,39.29z M55.57,125.05c-1.24,2.86-2.61,5.95-5.03,8.02c-3.45,3.03-8.56,2.39-9.33-2.65
	c-0.45-3.16,1.23-6.15,3.08-8.56c1.84-2.39,4.16-4.49,6.41-6.48c3.2-2.83,6.64-5.39,10.24-7.7
	C59.68,113.63,57.99,119.48,55.57,125.05z"/>
</svg>
