<?xml version="1.0" encoding="utf-8"?>
<!-- Generator: Adobe Illustrator 25.0.0, SVG Export Plug-In . SVG Version: 6.00 Build 0)  -->
<svg version="1.1" id="Layer_1" xmlns="http://www.w3.org/2000/svg" xmlns:xlink="http://www.w3.org/1999/xlink" x="0px" y="0px"
	 viewBox="0 0 149.32 145.9" style="enable-background:new 0 0 149.32 145.9;" xml:space="preserve">
<style type="text/css">
	.st0{display:none;}
	.st1{fill-rule:evenodd;clip-rule:evenodd;}
</style>
<circle class="st0" cx="74.66" cy="72.95" r="75"/>
<g>
	<path class="st1" d="M74.91,0C33.46,0,0,33.46,0,74.91c0,32.96,21.47,60.92,51.44,70.91c4,0.5,4.99-1.5,4.99-3.5v-12.98
		c-20.97,4.49-25.47-9.99-25.47-9.99c-3.5-8.49-8.49-10.99-8.49-10.99c-6.99-4.49,0.5-4.49,0.5-4.49c7.49,0.5,11.49,7.49,11.49,7.49
		c6.49,11.49,17.48,7.99,21.97,5.99c0.5-4.99,2.5-7.99,4.99-9.99c-16.48-2-33.96-8.49-33.96-36.95c0-7.99,3-14.98,7.49-19.98
		c-1-2-3.5-9.49,0.5-19.98c0,0,6.49-2,20.47,7.49c5.99-1.5,12.48-2.5,18.98-2.5c6.49,0,12.98,1,18.98,2.5
		c14.48-9.49,20.47-7.49,20.47-7.49c4,10.49,1.5,17.98,0.5,19.98c4.99,4.99,7.49,11.99,7.49,19.98c0,28.96-17.48,34.96-33.96,36.95
		c2.5,2.5,4.99,6.99,4.99,13.98v20.47c0,2,1.5,4.49,4.99,3.5c29.96-9.99,50.94-37.95,50.94-70.91C149.81,33.46,116.36,0,74.91,0z"/>
</g>
</svg>
