<svg xmlns="http://www.w3.org/2000/svg" viewBox="0 0 149.32 145.9"><path d="M74.91 0C33.46 0 0 33.46 0 74.91c0 32.96 21.47 60.92 51.44 70.91 4 .5 4.99-1.5 4.99-3.5v-12.98c-20.97 4.49-25.47-9.99-25.47-9.99-3.5-8.49-8.49-10.99-8.49-10.99-6.99-4.49.5-4.49.5-4.49 7.49.5 11.49 7.49 11.49 7.49 6.49 11.49 17.48 7.99 21.97 5.99.5-4.99 2.5-7.99 4.99-9.99-16.48-2-33.96-8.49-33.96-36.95 0-7.99 3-14.98 7.49-19.98-1-2-3.5-9.49.5-19.98 0 0 6.49-2 20.47 7.49 5.99-1.5 12.48-2.5 18.98-2.5 6.49 0 12.98 1 18.98 2.5 14.48-9.49 20.47-7.49 20.47-7.49 4 10.49 1.5 17.98.5 19.98 4.99 4.99 7.49 11.99 7.49 19.98 0 28.96-17.48 34.96-33.96 36.95 2.5 2.5 4.99 6.99 4.99 13.98v20.47c0 2 1.5 4.49 4.99 3.5 29.96-9.99 50.94-37.95 50.94-70.91C149.81 33.46 116.36 0 74.91 0z" fill-rule="evenodd" clip-rule="evenodd"/></svg>