<?xml version="1.0" encoding="utf-8"?>
<!-- Generator: Adobe Illustrator 25.0.0, SVG Export Plug-In . SVG Version: 6.00 Build 0)  -->
<svg version="1.1" id="Layer_1" xmlns="http://www.w3.org/2000/svg" xmlns:xlink="http://www.w3.org/1999/xlink" x="0px" y="0px"
	 viewBox="0 0 150 150" style="enable-background:new 0 0 150 150;" xml:space="preserve">
<style type="text/css">
	.st0{display:none;}
</style>
<circle class="st0" cx="75" cy="75" r="75"/>
<path d="M75,0C33.58,0,0,33.58,0,75c0,41.42,33.58,75,75,75s75-33.58,75-75C150,33.58,116.42,0,75,0z M119.22,59.58v43
	c0,3.31-2.68,6-6,6h-14v-34l-24,18l-24-18v34h-14c-3.31,0-6-2.68-6-6v-43v-8c0-7.42,8.46-11.65,14.4-7.2l5.6,4.2l24,18l24-18
	l5.6-4.2c5.93-4.45,14.4-0.22,14.4,7.2V59.58z"/>
</svg>
