<svg xmlns="http://www.w3.org/2000/svg" viewBox="0 0 150 150"><path d="M75 0C33.6 0 0 33.6 0 75s33.6 75 75 75 75-33.6 75-75S116.4 0 75 0zM58.1 74.5c0 1.4-.2 2.7-.6 4l24.7 14.1c2.5-2.7 6.1-4.4 10-4.4 7.5 0 13.7 6.1 13.7 13.7s-6.1 13.7-13.7 13.7-13.7-6.1-13.7-13.7c0-1.1.1-2.2.4-3.2l-25-14.3c-2.5 2.4-5.8 3.9-9.5 3.9-7.5 0-13.7-6.1-13.7-13.7s6.1-13.7 13.7-13.7c3.7 0 7 1.5 9.5 3.9L79 50.4c-.3-1-.4-2.1-.4-3.2 0-7.5 6.1-13.7 13.7-13.7S106 39.6 106 47.2s-6.1 13.7-13.7 13.7c-4 0-7.5-1.7-10-4.4l-24.8 14c.4 1.3.6 2.6.6 4z"/></svg>