<?xml version="1.0" encoding="utf-8"?>
<!-- Generator: Adobe Illustrator 25.0.0, SVG Export Plug-In . SVG Version: 6.00 Build 0)  -->
<svg version="1.1" id="Layer_1" xmlns="http://www.w3.org/2000/svg" xmlns:xlink="http://www.w3.org/1999/xlink" x="0px" y="0px"
	 viewBox="0 0 150 150" style="enable-background:new 0 0 150 150;" xml:space="preserve">
<style type="text/css">
	.st0{display:none;}
	.st1{display:inline;}
	.st2{display:inline;fill:#FFFFFF;}
	.st3{fill:#FFFFFF;}
	.st4{display:none;fill:#FFFFFF;}
</style>
<g class="st0">
	<g class="st1">
	</g>
	<g class="st1">
	</g>
	<g class="st1">
	</g>
	<g class="st1">
	</g>
	<g class="st1">
	</g>
	<g class="st1">
	</g>
	<g class="st1">
	</g>
	<g class="st1">
	</g>
	<g class="st1">
	</g>
	<g class="st1">
	</g>
	<g class="st1">
	</g>
	<g class="st1">
	</g>
	<g class="st1">
	</g>
	<g class="st1">
	</g>
	<g class="st1">
	</g>
</g>
<path d="M75,0C33.58,0,0,33.58,0,75c0,41.42,33.58,75,75,75s75-33.58,75-75C150,33.58,116.42,0,75,0z M104.73,58.82
	c0.03,0.66,0.06,1.33,0.06,2.03c0,20.73-15.79,44.65-44.66,44.65c-8.88,0-17.12-2.56-24.07-7.04c1.23,0.16,2.47,0.22,3.76,0.22
	c7.34,0,14.12-2.52,19.45-6.69c-6.86-0.15-12.63-4.72-14.66-10.93c0.95,0.21,1.97,0.27,2.97,0.27c1.44,0,2.84-0.17,4.11-0.52
	c-7.13-1.46-12.57-7.79-12.57-15.42c0-0.06,0-0.12,0-0.17c2.1,1.15,4.57,1.88,7.09,1.93c-4.17-2.79-6.97-7.61-6.97-13.04
	c0-2.89,0.79-5.58,2.15-7.93c7.75,9.52,19.3,15.78,32.34,16.41c-0.26-1.14-0.36-2.33-0.36-3.58c0-8.64,6.99-15.69,15.68-15.69
	c4.48,0,8.58,1.9,11.46,4.97c3.57-0.71,6.92-1.99,9.95-3.8c-1.17,3.68-3.65,6.73-6.9,8.67c3.16-0.4,6.19-1.23,9.04-2.48
	C110.46,53.85,107.84,56.61,104.73,58.82z"/>
<g class="st0">
	<path class="st2" d="M108.98,103L108.98,103l0.02,0V78.06c0-12.2-2.63-21.6-16.89-21.6c-6.86,0-11.46,3.76-13.34,7.33h-0.2V57.6
		H65.05V103h14.08V80.52c0-5.92,1.12-11.64,8.45-11.64c7.22,0,7.33,6.75,7.33,12.02V103H108.98z"/>
	<path class="st2" d="M42.12,57.6h14.1V103h-14.1L42.12,57.6z"/>
	<path class="st2" d="M49.17,35C44.66,35,41,38.66,41,43.17s3.66,8.24,8.17,8.24s8.17-3.73,8.17-8.24C57.33,38.66,53.67,35,49.17,35
		z"/>
</g>
<g class="st0">
	<g class="st1">
		<path id="f_2_" class="st3" d="M82.36,121.5V78.17H96.9l2.18-16.89H82.36V50.49c0-4.89,1.35-8.22,8.37-8.22l8.94,0V27.16
			c-1.55-0.2-6.85-0.66-13.03-0.66c-12.89,0-21.72,7.87-21.72,22.32v12.46H50.33v16.89h14.58v43.33H82.36z"/>
	</g>
	<g class="st1">
	</g>
	<g class="st1">
	</g>
	<g class="st1">
	</g>
	<g class="st1">
	</g>
	<g class="st1">
	</g>
	<g class="st1">
	</g>
	<g class="st1">
	</g>
	<g class="st1">
	</g>
	<g class="st1">
	</g>
	<g class="st1">
	</g>
	<g class="st1">
	</g>
	<g class="st1">
	</g>
	<g class="st1">
	</g>
	<g class="st1">
	</g>
	<g class="st1">
	</g>
</g>
<path class="st4" d="M98.24,88.17c-3.97,0-7.54,1.7-10.04,4.4L63.48,78.48c0.38-1.26,0.59-2.59,0.59-3.98
	c0-1.38-0.21-2.72-0.59-3.98L88.2,56.43c2.5,2.71,6.07,4.41,10.04,4.41c7.54,0,13.67-6.13,13.67-13.67
	c0-7.54-6.13-13.67-13.67-13.67s-13.67,6.13-13.67,13.67c0,1.12,0.14,2.2,0.39,3.24L59.91,64.69c-2.46-2.38-5.81-3.86-9.5-3.86
	c-7.54,0-13.67,6.13-13.67,13.67s6.13,13.67,13.67,13.67c3.69,0,7.04-1.47,9.5-3.86l25.05,14.28c-0.25,1.04-0.39,2.12-0.39,3.24
	c0,7.54,6.13,13.67,13.67,13.67s13.67-6.13,13.67-13.67C111.91,94.3,105.78,88.17,98.24,88.17z"/>
<circle class="st0" cx="92.75" cy="96.25" r="75"/>
<circle class="st0" cx="92.75" cy="96.25" r="75"/>
<circle class="st0" cx="92.75" cy="96.25" r="75"/>
</svg>
