<svg xmlns="http://www.w3.org/2000/svg" viewBox="0 0 150 150"><path d="M75 0C33.6 0 0 33.6 0 75s33.6 75 75 75 75-33.6 75-75S116.4 0 75 0zm29.7 58.8c0 .7.1 1.3.1 2 0 20.7-15.8 44.7-44.7 44.7-8.9 0-17.1-2.6-24.1-7 1.2.2 2.5.2 3.8.2 7.3 0 14.1-2.5 19.5-6.7-6.9-.2-12.6-4.7-14.7-10.9 1 .2 2 .3 3 .3 1.4 0 2.8-.2 4.1-.5-7.1-1.5-12.6-7.8-12.6-15.4v-.2c2.1 1.2 4.6 1.9 7.1 1.9-4.2-2.8-7-7.6-7-13 0-2.9.8-5.6 2.2-7.9 7.8 9.5 19.3 15.8 32.3 16.4-.3-1.1-.4-2.3-.4-3.6 0-8.6 7-15.7 15.7-15.7 4.5 0 8.6 1.9 11.5 5 3.6-.7 6.9-2 9.9-3.8-1.2 3.7-3.7 6.7-6.9 8.7 3.2-.4 6.2-1.2 9-2.5-2 3-4.7 5.8-7.8 8z"/></svg>